<svg xmlns="http://www.w3.org/2000/svg" width="171" height="40" aria-label="Upgrade Logo" viewBox="0 0 189 42"><g clip-path="url(#clip0_124_31023)"><path fill="#0e680e" d="M57.167 12.733v10.975c0 2.935-2.417 5.316-5.397 5.316-2.98 0-5.398-2.38-5.398-5.316V12.733h-4.07v10.811c0 5.15 4.24 9.325 9.468 9.325 5.229 0 9.468-4.175 9.468-9.325v-10.81h-4.07Z"/><path fill="#4a9d2d" d="M18.973.044v25.544c0 6.435-5.296 11.651-11.831 11.651-.846 0-1.67-.089-2.464-.255A16.734 16.734 0 0 0 16.665 42c9.203 0 16.662-7.35 16.662-16.41V.043H18.973Z"/><path fill="#0e680e" d="M7.142 32.657C3.196 32.657 0 29.507 0 25.621V4.564h14.287v21.057c0 3.886-3.199 7.036-7.145 7.036ZM84.886 22.49c0 6.173-4.631 10.3-9.82 10.3-2.994 0-5.468-1.023-7.187-2.793v9.264h-4.151v-26.52h4.151v2.24c1.716-1.77 4.19-2.793 7.186-2.793 5.19 0 9.821 4.168 9.821 10.3m-4.031 0c0-4.089-2.835-6.684-6.467-6.684-3.274 0-6.506 2.595-6.506 6.684 0 4.088 3.232 6.684 6.506 6.684 3.632 0 6.467-2.555 6.467-6.684ZM123.374 12.662l-.28 3.932c-.319-.038-.797-.038-1.158-.038-5.029 0-7.505 3.46-7.505 8.806v6.88h-4.152v-19.5h4.152v4.167c1.596-2.595 4.112-4.403 7.544-4.403.48 0 .878 0 1.397.158M144.556 32.24h-4.151V30c-1.716 1.77-4.193 2.793-7.186 2.793-5.19 0-9.819-4.127-9.819-10.3 0-6.172 4.629-10.299 9.819-10.299 2.993 0 5.47 1.023 7.186 2.792v-2.24h4.151v19.495Zm-4.151-9.749c0-4.088-3.232-6.684-6.506-6.684-3.632 0-6.467 2.595-6.467 6.684s2.835 6.684 6.467 6.684c3.274 0 6.506-2.555 6.506-6.684ZM184.301 26.666c-1.399 2.079-3.393 2.588-5.358 2.588-2.913 0-5.59-2.163-5.987-5.779h16.047V22.06c-.2-5.858-4.59-9.868-9.899-9.868-5.59 0-10.26 4.127-10.26 10.34 0 6.214 4.709 10.261 10.099 10.261 4.387 0 7.9-2.043 9.538-6.126h-4.18Zm-5.2-10.857c2.713 0 4.99 1.573 5.628 4.756h-11.656c.638-3.145 3.432-4.756 6.028-4.756ZM163.181 0v14.418c-1.796-1.316-4.055-2.058-6.495-2.058-5.805 0-10.543 4.142-10.543 10.22s4.738 10.259 10.543 10.259c5.805 0 10.267-3.953 10.522-9.76h.013V0h-4.04Zm-6.495 29.284c-3.435 0-6.517-2.643-6.517-6.706 0-4.063 3.079-6.707 6.517-6.707 3.437 0 6.477 2.644 6.477 6.707s-3.12 6.706-6.477 6.706ZM103.618 12.74v2.24c-1.716-1.769-4.193-2.792-7.186-2.792-5.19 0-9.82 4.168-9.82 10.3 0 6.131 4.633 10.299 9.82 10.299 2.993 0 5.47-1.023 7.186-2.792v.478c0 3.616-2.355 6.702-6.109 6.702s-5.125-1.542-6.602-3.823l-3.19 2.082c1.596 2.91 4.008 5.438 9.792 5.438 6.187 0 10.26-4.636 10.26-10.317V12.74h-4.151Zm-6.506 16.434c-3.632 0-6.467-2.554-6.467-6.684 0-4.13 2.835-6.683 6.467-6.683 3.274 0 6.506 2.595 6.506 6.683 0 4.089-3.235 6.684-6.506 6.684Z"/></g></svg>